<svg xmlns="http://www.w3.org/2000/svg" viewBox="0 0 192.5 192.5"><defs><style>.cls-1{fill:#97fb00;}</style></defs><title>jonnybot</title><g id="Layer_2" data-name="Layer 2"><g id="Layer_1-2" data-name="Layer 1"><path class="cls-1" d="M0,0V192.5H192.5V0ZM76.8,110.92c0,3.74-.42,6.51-1.28,8.31a6.87,6.87,0,0,1-4.08,3.7q-2.81,1-11.49,1H43.31V68.58H57.66A37.73,37.73,0,0,1,68,69.64a10.29,10.29,0,0,1,5.66,4.29q2.15,3.22,2.15,10.4c0,3.23-.51,5.49-1.52,6.76s-3,2.26-6,2.94c3.33.75,5.58,2,6.77,3.74s1.77,4.42,1.77,8ZM114.85,101a117.43,117.43,0,0,1-.4,11.81,13.22,13.22,0,0,1-8,10.75,20.23,20.23,0,0,1-8.2,1.54,20.82,20.82,0,0,1-8-1.45A13.3,13.3,0,0,1,82,113a115.06,115.06,0,0,1-.41-12V91.52q0-8.34.39-11.81A13.22,13.22,0,0,1,90,69a20.23,20.23,0,0,1,8.2-1.54,20.82,20.82,0,0,1,8,1.45,13.34,13.34,0,0,1,8.26,10.68,118,118,0,0,1,.41,12ZM149.2,79.66h-8.55v44.26H126.26V79.66h-8.51V68.58H149.2Z"/><path d="M75,97.77c-1.19-1.74-3.44-3-6.77-3.74q4.47-1,6-2.94c1-1.27,1.52-3.53,1.52-6.76q0-7.17-2.15-10.4A10.29,10.29,0,0,0,68,69.64a37.73,37.73,0,0,0-10.31-1.06H43.31v55.34H60q8.68,0,11.49-1a6.87,6.87,0,0,0,4.08-3.7c.86-1.8,1.28-4.57,1.28-8.31v-5.13Q76.8,100.39,75,97.77ZM62.41,109.29c0,2.23-.27,3.64-.83,4.2s-1.85.89-3.88,1V99c2.14.07,3.46.35,4,.85s.75,1.94.75,4.31Zm-.58-20c-.38.69-1.28,1-2.7,1l-1.43,0V78.05a11,11,0,0,1,3,.31,2.3,2.3,0,0,1,1.25,1.31,9.68,9.68,0,0,1,.47,3.64C62.41,86.6,62.22,88.58,61.83,89.28Z"/><path class="cls-1" d="M62.41,104.13v5.16c0,2.23-.27,3.64-.83,4.2s-1.85.89-3.88,1V99c2.14.07,3.46.35,4,.85S62.41,101.76,62.41,104.13Z"/><path class="cls-1" d="M62.41,83.31c0,3.29-.19,5.27-.58,6s-1.28,1-2.7,1l-1.43,0V78.05a11,11,0,0,1,3,.31,2.3,2.3,0,0,1,1.25,1.31A9.68,9.68,0,0,1,62.41,83.31Z"/><path d="M114.44,79.55a13.34,13.34,0,0,0-8.26-10.68,20.82,20.82,0,0,0-8-1.45A20.23,20.23,0,0,0,90,69a13.22,13.22,0,0,0-8,10.75q-.39,3.47-.39,11.81V101A115.06,115.06,0,0,0,82,113a13.3,13.3,0,0,0,8.25,10.68,20.82,20.82,0,0,0,8,1.45,20.23,20.23,0,0,0,8.2-1.54,13.22,13.22,0,0,0,8-10.75,117.43,117.43,0,0,0,.4-11.81V91.52A118,118,0,0,0,114.44,79.55Zm-14,28.68a27.65,27.65,0,0,1-.41,6.19,1.78,1.78,0,0,1-1.88,1.3,1.72,1.72,0,0,1-1.83-1.13,25.64,25.64,0,0,1-.39-6V82.8c0-2.85.19-4.56.59-5.14a2,2,0,0,1,1.73-.87A1.7,1.7,0,0,1,100,77.86a17.34,17.34,0,0,1,.43,4.94Z"/><path class="cls-1" d="M100.46,82.8v25.43a27.65,27.65,0,0,1-.41,6.19,1.78,1.78,0,0,1-1.88,1.3,1.72,1.72,0,0,1-1.83-1.13,25.64,25.64,0,0,1-.39-6V82.8c0-2.85.19-4.56.59-5.14a2,2,0,0,1,1.73-.87A1.7,1.7,0,0,1,100,77.86,17.34,17.34,0,0,1,100.46,82.8Z"/><polygon points="149.2 68.58 149.2 79.66 140.65 79.66 140.65 123.92 126.26 123.92 126.26 79.66 117.75 79.66 117.75 68.58 149.2 68.58"/></g></g></svg>